<svg xmlns="http://www.w3.org/2000/svg" width="639.995" height="400.953" viewBox="0 0 639.995 400.953">
  <path id="behance" d="M185.577,119.517c18.862,0,35.847,1.642,51.331,5.008,15.52,3.236,28.63,8.752,39.757,16.24a77.67,77.67,0,0,1,25.748,29.989c6,12.354,9,27.862,9,46.229,0,19.878-4.476,36.355-13.512,49.63-9.118,13.24-22.358,24-40.122,32.516,24.236,6.993,42.118,19.24,54.118,36.627,11.989,17.516,17.753,38.5,17.753,63.225,0,20-3.886,37.11-11.469,51.615a101.309,101.309,0,0,1-31.11,35.634,135.629,135.629,0,0,1-44.753,20.363,202.634,202.634,0,0,1-51.45,6.626H0V119.553l185.6.012-.023-.048Zm232.042,31.76H577.235V190.16l-159.616-.012V151.277Zm35.469,293.448q17.646,17.2,50.646,17.233c15.745,0,29.516-4.016,40.867-12.012s18.248-16.465,20.882-25.229l68.965.012c-11.126,34.347-27.874,58.749-50.859,73.5-22.642,14.753-50.35,22.241-82.5,22.241-22.524,0-42.627-3.65-60.757-10.772a128.619,128.619,0,0,1-45.993-30.638,140.372,140.372,0,0,1-29-47.493c-6.756-18.354-10.229-38.752-10.229-60.744A167.069,167.069,0,0,1,365.591,311.2c7.122-18.52,16.878-34.359,29.87-47.753A141.352,141.352,0,0,1,441.7,231.7c17.883-7.76,37.631-11.646,59.505-11.646,24.107,0,45.225,4.642,63.356,14.126a127.671,127.671,0,0,1,44.492,37.749c11.646,15.768,19.878,33.874,25,54.107a204.162,204.162,0,0,1,5.469,63.508H433.706c0,22.359,7.512,43.76,19.358,55.1l.024.082Zm89.871-149.707c-9.236-10.24-25.122-15.874-44.233-15.874-12.52,0-22.866,2.114-31.11,6.366a62.584,62.584,0,0,0-19.878,15.745,55.851,55.851,0,0,0-10.465,20.1,93.948,93.948,0,0,0-3.65,18.756l127.5-.012c-1.878-19.984-8.752-34.736-18.118-45.106l-.047.023ZM174.3,278.494c15.355,0,28.1-3.65,38.091-11.008,9.992-7.24,14.752-19.24,14.752-35.752,0-9.106-1.63-16.76-4.878-22.642a36.137,36.137,0,0,0-13.37-13.748,52.965,52.965,0,0,0-19.1-6.886,119.319,119.319,0,0,0-22.24-1.984H86.576v91.973h87.745Zm4.748,167.59a106.454,106.454,0,0,0,24.213-2.528c7.748-1.748,14.634-4.359,20.363-8.35a41.92,41.92,0,0,0,14.114-15.745c3.52-6.638,5.126-15.118,5.126-25.477,0-20.232-5.764-34.748-17.114-43.512-11.351-8.646-26.47-12.874-45.214-12.874H86.552V445.93l92.493-.012v.165Z" transform="translate(0 -119.517)" fill="#fff" fill-rule="evenodd"/>
</svg>
