<svg xmlns="http://www.w3.org/2000/svg" width="640" height="640" viewBox="0 0 640 640">
  <path id="dribbble" d="M320,640C143.529,640,0,496.494,0,320S143.482,0,320,0C496.471,0,640,143.482,640,320S496.494,640,320,640ZM589.873,363.772c-9.354-3-84.65-25.359-170.246-11.646,35.752,98.234,50.245,178.242,53.127,194.884,61.24-41.48,105-107.127,117.12-183.238ZM426.761,572c-4.122-24.012-19.878-107.517-58.23-207.239a18.562,18.562,0,0,0-1.759.638c-154.23,53.752-209.636,160.644-214.479,170.636A272.616,272.616,0,0,0,426.82,572.05l-.059-.047ZM116.871,503.12c6.248-10.642,81.249-134.754,222.121-180.357,3.52-1.11,7.122-2.232,10.76-3.236-6.874-15.52-14.362-31.11-22.122-46.359-136.36,40.879-268.87,39.119-280.87,39-.13,2.765-.13,5.517-.13,8.363a272.274,272.274,0,0,0,70.24,182.636v-.047ZM52.511,264.37c12.25.117,124.88.625,252.76-33.25C260.046,150.6,211.148,82.89,203.908,73,127.395,109.112,70.147,179.648,52.548,264.37h-.036Zm203.5-209.72c7.512,10.11,57.237,77.765,102,159.994,97.242-36.366,138.357-91.773,143.247-98.765A271.991,271.991,0,0,0,320.013,47a283.659,283.659,0,0,0-63.993,7.63l-.012.023Zm275.637,92.99C525.881,155.388,480,214.16,379,255.4c6.354,12.992,12.508,26.244,18.118,39.638,2,4.76,4,9.354,5.882,14.114,90.993-11.35,181.36,6.886,190.372,8.752a272.676,272.676,0,0,0-61.76-170.246l.035-.023Z" fill="#fff" fill-rule="evenodd"/>
</svg>
