<svg xmlns="http://www.w3.org/2000/svg" width="639.999" height="640" viewBox="0 0 639.999 640">
  <path id="linkedin-square" d="M580,0H60A60.176,60.176,0,0,0,0,60V580a60.176,60.176,0,0,0,60,60H580a60.176,60.176,0,0,0,60-60V60A60.176,60.176,0,0,0,580,0ZM239.991,520H160.006V239.992h79.985Zm-40-320.012a40,40,0,1,1,40-39.993A39.964,39.964,0,0,1,199.987,199.987ZM520,520H440.013V360.005a40,40,0,0,0-80.008,0V520H280V239.992h80.01v49.642c16.476-22.654,41.752-49.642,69.993-49.642,49.76,0,90,44.764,90,100.005V520Z" fill="#fff" fill-rule="evenodd"/>
</svg>
